<svg xmlns:xlink="http://www.w3.org/1999/xlink" width="2424.024" height="549.957" version="1.2" viewBox="0 0 1818.018 412.468" xmlns="http://www.w3.org/2000/svg"><defs><symbol id="f" overflow="visible"><path d="M1.297 0H4.25l2.484-7.422H17.36L19.875 0h3.094L14.25-25.734h-4.094zm10.766-23.141 4.469 13.234H7.594Z"/></symbol><symbol id="g" overflow="visible"><path d="M3.031 6.547h2.985v-9.64C7.094-1.22 9.28.327 12.39.327c5.171 0 8.562-3.969 8.562-9.719v-.296c0-5.86-3.64-9.47-8.562-9.47-2.75 0-5.297 1.657-6.375 3.5v-3.171H3.03Zm9.063-8.703c-3.672 0-6.188-2.266-6.188-7.094v-.297c0-4.812 2.656-7.125 6.156-7.125 3.172 0 5.797 2.375 5.797 7.125v.297c0 4.563-2.015 7.094-5.765 7.094"/></symbol><symbol id="h" overflow="visible"><use xlink:href="#a"/></symbol><symbol id="i" overflow="visible"><use xlink:href="#b"/></symbol><symbol id="j" overflow="visible"><path d="M10.844.328c4.531 0 7.797-3.031 8.203-7.094h-2.781c-.313 3.063-2.734 4.61-5.39 4.61-3.641 0-6.157-2.453-6.157-7.063V-9.5c0-4.438 2.625-7.172 6.047-7.172 2.594 0 4.75 1.125 5.219 4.11h2.953c-.578-4.797-4.25-6.594-8.172-6.594-5.047 0-9.14 3.89-9.14 9.656v.281c0 5.828 3.953 9.547 9.218 9.547"/></symbol><symbol id="k" overflow="visible"><path d="M7.734.328c2.782 0 4.47-.937 5.875-2.703V0h2.985v-12.422c0-5.25-3.281-6.734-6.875-6.734-3.64 0-7.063 1.593-7.453 5.875H5.25c.297-2.313 1.735-3.391 4.328-3.391 2.875 0 4.031 1.266 4.031 4.25v1.375h-2.703c-4.828 0-9.437 1.469-9.437 5.828C1.469-1.375 4.25.328 7.734.328m.297-2.375c-2.625 0-3.562-1.234-3.562-3.172 0-2.765 2.765-3.703 6.547-3.703h2.593v2.328c0 2.922-2.406 4.547-5.578 4.547"/></symbol><symbol id="l" overflow="visible"><path d="M8.75.25c1.219 0 1.938-.172 2.547-.39v-2.516c-.64.25-1.36.39-2.297.39-1.516 0-2.344-.906-2.344-2.734v-11.312h4.39v-2.516h-4.39v-4.28H3.672v4.28H.969v2.516h2.703v11.594C3.672-1.765 5.328.251 8.75.251z"/></symbol><symbol id="m" overflow="visible"><path d="M10.844.328c5.36 0 9.281-3.922 9.281-9.61v-.296c0-5.656-3.922-9.578-9.25-9.578s-9.25 3.969-9.25 9.61v.296c0 5.5 3.844 9.578 9.219 9.578m.031-2.484C7.063-2.156 4.72-4.97 4.72-9.25v-.297c0-4.312 2.375-7.125 6.156-7.125 3.735 0 6.156 2.813 6.156 7.172v.25c0 4.25-2.375 7.094-6.156 7.094"/></symbol><symbol id="n" overflow="visible"><path d="M3.031 0h2.985v-11.406c0-3.39 2.484-5.156 5.25-5.156 3.03 0 4.437 1.484 4.437 4.797V0h2.984v-11.562c0-5.47-2.734-7.594-6.625-7.594-3.093 0-5.187 1.547-6.046 3.312v-2.984H3.03Z"/></symbol><symbol id="o" overflow="visible"/><symbol id="p" overflow="visible"><path d="M3.234 0h3.141v-10.469h4.172c4.89 0 9-2.125 9-7.61v-.14c0-5.36-4.063-7.516-9-7.516H3.234Zm3.141-12.953v-10.266h4.39c3.485 0 5.657 1.36 5.657 5v.14c0 3.313-1.985 5.126-5.656 5.126z"/></symbol><symbol id="q" overflow="visible"><path d="M3.031 0h2.985v-10.328c0-4.64 2.406-5.828 6.187-6.016v-2.812c-3.39.11-5 1.594-6.187 3.719v-3.39H3.03Z"/></symbol><symbol id="r" overflow="visible"><use xlink:href="#c"/></symbol><symbol id="s" overflow="visible"><path d="M8.86.328c4.562 0 6.906-2.312 6.906-5.734 0-3.985-2.735-4.86-6.625-5.578-3.453-.61-4.391-1.297-4.391-2.985 0-1.625 1.406-2.703 3.563-2.703 2.374 0 3.53.906 3.968 2.953h2.875c-.5-4.062-3.422-5.437-6.797-5.437-2.953 0-6.375 1.797-6.375 5.297 0 3.28 1.657 4.64 6.547 5.547 2.922.53 4.39 1.187 4.39 3.171 0 2.016-1.265 2.985-4.108 2.985-3.016 0-4.204-1.406-4.422-3.64H1.469C1.656-1.938 4.359.327 8.859.327z"/></symbol><symbol id="t" overflow="visible"><path d="M11.562.328c5.11 0 8.89-3.281 8.89-7.594 0-4.86-3.03-6.593-8.75-7.5-5.265-.78-6.187-2.078-6.187-4.61 0-2.405 1.828-4.171 5.36-4.171 3.562 0 5.437 1.328 6.046 4.578h2.813c-.516-4.578-3.719-7.094-8.86-7.094-4.859 0-8.28 3.016-8.28 6.985 0 4.562 3.202 6.265 8.609 7.094 4.89.78 6.218 2.015 6.218 4.921 0 2.922-2.546 4.86-5.859 4.86-5.187 0-6.422-2.578-6.812-5.64H1.734c.469 4.389 2.953 8.17 9.828 8.17"/></symbol><symbol id="u" overflow="visible"><path d="M9.39.328c3.032 0 5.126-1.547 5.985-3.312V0h2.984v-18.828h-2.984v11.406c0 3.39-2.516 5.156-5.187 5.156-2.954 0-4.36-1.484-4.36-4.797v-11.766H2.844v11.922C2.844-1.735 5.656.328 9.39.328"/></symbol><symbol id="v" overflow="visible"><path d="M3.234 0h15.672v-2.562H6.376v-9.313h9.577v-2.562H6.375v-8.75H18.25v-2.547H3.234Z"/></symbol><symbol id="w" overflow="visible"><path d="M7.734 0h3.829l6.765-18.828h-3.094L9.72-3.031 4.14-18.828H.906Z"/></symbol><symbol id="A" overflow="visible"><path d="M3.234 0h2.891v-21.672L14.938 0h.968l8.531-21.672V0h3.141v-25.734H23.25L15.547-5.687 7.594-25.734h-4.36z"/></symbol><symbol id="D" overflow="visible"><use xlink:href="#d"/></symbol><symbol id="E" overflow="visible"><use xlink:href="#e"/></symbol><symbol id="F" overflow="visible"><path d="M6.797 0h3.281l4.39-14.109L18.392 0h3.312l5.875-18.828h-3.062L20.094-3.672l-4.297-15.156h-2.578L8.64-3.672 4.25-18.828H1.016Z"/></symbol><symbol id="G" overflow="visible"><path d="M10.109.328c2.75 0 5.375-1.734 6.453-3.562V0h2.984v-27.828h-2.984v12.031c-1.078-1.844-3.031-3.36-6.156-3.36-5.188 0-8.781 4.079-8.781 9.829v.297c0 5.859 3.562 9.359 8.484 9.359m.328-2.484c-3.172 0-5.719-2.266-5.719-7.031v-.282c0-4.578 2.235-7.203 5.97-7.203 3.671 0 5.984 2.266 5.984 7.094v.297c0 4.812-2.735 7.125-6.235 7.125"/></symbol><symbol id="H" overflow="visible"><path d="M3.234 0H9.97c9 0 13.109-5.656 13.109-12.781v-.328c0-7.156-4.172-12.625-13.031-12.625H3.234Zm3.141-2.562v-20.656h3.484c7.094 0 9.985 4.171 9.985 10.109v.296c0 6.297-3.313 10.25-9.938 10.25z"/></symbol><symbol id="x" overflow="visible"><path d="M2.438-22.844h4v10.391L16.61-22.844h4.921l-9.109 9.11 9.75 13.733h-4.984L9.703-10.907l-3.265 3.22V0h-4z"/></symbol><symbol id="y" overflow="visible"><path d="M2.438-22.844h9.468q2.625 0 4.547.89c1.281.594 2.32 1.415 3.125 2.454.813 1.03 1.414 2.242 1.813 3.625q.592 2.079.593 4.453-.001 2.36-.593 4.453c-.399 1.387-1 2.594-1.813 3.625-.804 1.031-1.844 1.852-3.125 2.453q-1.922.89-4.547.89H2.438Zm4 19.578h3.937q2.324.001 3.813-.625 1.5-.622 2.343-1.719.844-1.106 1.14-2.594.313-1.498.313-3.218a15.8 15.8 0 0 0-.312-3.22q-.299-1.48-1.14-2.593-.844-1.108-2.344-1.719-1.488-.623-3.813-.625H6.438Z"/></symbol><symbol id="z" overflow="visible"><path d="M2.438-22.844h15.766v3.453H6.437v5.984h10.328v3.266H6.438V0h-4z"/></symbol><symbol id="I" overflow="visible"><path d="M8.547-22.844h4.25L21.594 0h-4.281l-2.141-6.047H6.047L3.907 0H-.22zM7.14-9.094h6.969l-3.422-9.813h-.094z"/></symbol><symbol id="J" overflow="visible"><path d="M2.438-22.844h16.438v3.453H6.436v5.984h11.517v3.266H6.437v6.688H19.11V0H2.438Z"/></symbol><symbol id="K" overflow="visible"><path d="M5.063-7.61q-.001 1.315.437 2.235.452.925 1.25 1.516a5.4 5.4 0 0 0 1.828.875 9 9 0 0 0 2.266.265q1.31.001 2.234-.297.937-.311 1.516-.78.575-.482.828-1.11.265-.621.265-1.266-.001-1.312-.593-1.937c-.399-.414-.828-.707-1.297-.875a26 26 0 0 0-2.844-.844q-1.611-.404-3.984-1.047-1.47-.388-2.454-1.016-.973-.622-1.546-1.39a5.1 5.1 0 0 1-.813-1.625 6.8 6.8 0 0 1-.234-1.766q-.001-1.732.718-2.984a6.3 6.3 0 0 1 1.907-2.094 8.1 8.1 0 0 1 2.687-1.234q1.498-.406 3.031-.407 1.793 0 3.375.469 1.594.456 2.782 1.39a6.8 6.8 0 0 1 1.906 2.282c.476.906.719 1.96.719 3.156h-4q-.176-2.202-1.516-3.11-1.349-.92-3.422-.921-.705 0-1.437.14a4.4 4.4 0 0 0-1.344.485 2.9 2.9 0 0 0-1.016.906q-.391.581-.39 1.438 0 1.22.75 1.906.75.69 1.968 1.047l1 .265c.594.156 1.25.336 1.97.531.726.188 1.437.375 2.124.563l1.5.39c.75.243 1.398.563 1.953.97q.828.61 1.39 1.39.562.785.829 1.687.28.891.281 1.782 0 1.921-.797 3.28a6.8 6.8 0 0 1-2.062 2.235A8.8 8.8 0 0 1 13.906.14q-1.627.406-3.313.406C9.29.546 8.063.382 6.906.062q-1.723-.482-3-1.469-1.285-.997-2.047-2.547Q1.091-5.5 1.062-7.61z"/></symbol><symbol id="L" overflow="visible"><path d="M6.156 0h2.219l4.672-15.812L17.578 0h2.25l5.203-20.016h-2.265L18.64-3.813l-4.703-16.203h-1.735L7.5-3.86 3.438-20.016H.953Z"/></symbol><symbol id="M" overflow="visible"><path d="M3.531-17.703c.844 0 1.531-.687 1.531-1.531s-.687-1.547-1.53-1.547a1.56 1.56 0 0 0-1.548 1.547c0 .844.703 1.531 1.547 1.531M2.406 0h2.328v-14.641H2.406Z"/></symbol><symbol id="N" overflow="visible"><path d="M6.797.203c.953 0 1.516-.14 2-.312v-1.97c-.516.204-1.063.313-1.797.313-1.172 0-1.812-.703-1.812-2.125v-8.797h3.406v-1.953H5.188v-3.328H2.859v3.328H.75v1.953h2.11v9.016C2.86-1.375 4.14.203 6.796.203z"/></symbol><symbol id="O" overflow="visible"><path d="M2.36 0h2.312v-8.875c0-2.64 1.937-4 4.094-4 2.343 0 3.437 1.14 3.437 3.719V0h2.328v-8.984c0-4.266-2.125-5.907-5.156-5.907-2.406 0-4.031 1.203-4.703 2.578v-9.328H2.36Z"/></symbol><symbol id="P" overflow="visible"/><symbol id="Q" overflow="visible"><path d="M1.234-6.25h1.844c.14-.969.672-1.484 1.297-1.484.89 0 2.031 1.437 3.969 1.437 1.312 0 2.719-1.094 2.89-3.594H9.376c-.078 1.016-.672 1.485-1.25 1.485-.922 0-2.078-1.422-3.922-1.422-1.406 0-2.781 1.14-2.969 3.578"/></symbol><symbol id="R" overflow="visible"><path d="M5.406 0h2.438v-20.016H5.578l-4.656 3.36v2.265l4.484-3.219z"/></symbol><symbol id="S" overflow="visible"><path d="M9.625.25c4.938 0 7.766-3.922 7.766-9.734v-1.125c0-5.72-2.891-9.657-7.813-9.657-4.906 0-7.89 3.797-7.89 9.703v1.126C1.687-3.61 4.843.25 9.625.25m0-2.016c-3.328 0-5.453-2.625-5.453-7.703v-1.11c0-4.937 2.016-7.733 5.406-7.733s5.344 3.03 5.344 7.671v1.125c0 5.063-1.797 7.75-5.297 7.75"/></symbol><symbol id="T" overflow="visible"><path d="M2.36 0h2.312v-8.953c0-2.64 1.969-3.922 3.875-3.922 2.016 0 3.094 1.063 3.094 3.64V0h2.328v-8.953c0-2.64 1.969-3.922 3.875-3.922 2.015 0 3.094 1.063 3.094 3.64V0h2.328v-9.078c0-4.25-2.297-5.813-4.922-5.813-1.828 0-4 .829-5.016 2.735-.75-1.953-2.406-2.735-4.281-2.735-2.11 0-3.703 1.11-4.375 2.485v-2.235H2.36Z"/></symbol><symbol id="U" overflow="visible"><path d="M6.89.25c3.548 0 5.376-1.797 5.376-4.453 0-3.11-2.125-3.781-5.157-4.344-2.687-.469-3.406-1-3.406-2.312 0-1.266 1.078-2.11 2.766-2.11 1.844 0 2.75.703 3.078 2.297h2.234c-.39-3.156-2.656-4.219-5.28-4.219-2.298 0-4.954 1.39-4.954 4.11 0 2.547 1.281 3.61 5.094 4.312 2.265.422 3.406.922 3.406 2.469 0 1.562-.969 2.312-3.188 2.312-2.343 0-3.28-1.078-3.437-2.828H1.141C1.28-1.516 3.39.25 6.89.25"/></symbol><symbol id="V" overflow="visible"><path d="M2.516 0H7.75c7 0 10.203-4.39 10.203-9.937v-.25c0-5.579-3.25-9.829-10.141-9.829H2.515Zm2.437-1.984v-16.078h2.719c5.516 0 7.75 3.25 7.75 7.875v.218c0 4.907-2.563 7.985-7.719 7.985z"/></symbol><symbol id="W" overflow="visible"><path d="M8.344.25c3.297 0 5.734-1.531 6.25-4.484h-2.328c-.313 1.718-1.625 2.547-3.89 2.547-3 0-4.595-1.844-4.704-5.172h11.031v-.75c0-5.25-3.187-7.282-6.578-7.282-4.031 0-6.86 3.079-6.86 7.5v.22C1.266-2.657 4.204.25 8.345.25zM3.75-8.734c.39-2.61 1.984-4.235 4.375-4.235 2.406 0 3.969 1.203 4.188 4.235z"/></symbol><symbol id="X" overflow="visible"><path d="M2.406 0h2.36v-21.641h-2.36Z"/></symbol><symbol id="Y" overflow="visible"><path d="M6.016.25c2.156 0 3.468-.719 4.562-2.094V0h2.328v-9.656c0-4.094-2.547-5.235-5.344-5.235-2.828 0-5.484 1.235-5.797 4.563h2.329c.218-1.797 1.343-2.64 3.359-2.64 2.234 0 3.125.984 3.125 3.312v1.062H8.484c-3.75 0-7.344 1.14-7.344 4.532 0 3 2.157 4.312 4.875 4.312zm.234-1.844c-2.047 0-2.781-.953-2.781-2.469 0-2.156 2.156-2.875 5.094-2.875h2.015v1.813c0 2.266-1.875 3.531-4.328 3.531"/></symbol><symbol id="Z" overflow="visible"><path d="M3.672 5.094h2.344l8.093-19.734h-2.374L7.672-4.14l-4.484-10.5H.703L6.438-1.515z"/></symbol><path id="a" d="M3.094 0h3.031v-27.828H3.094Z"/><path id="b" d="M4.531-22.75a2.01 2.01 0 0 0 1.985-1.984A2.01 2.01 0 0 0 4.53-26.72c-1.078 0-1.969.906-1.969 1.985 0 1.078.891 1.984 1.97 1.984M3.094 0h2.984v-18.828H3.094Z"/><path id="c" d="M10.734.328c4.234 0 7.375-1.984 8.016-5.765h-2.985c-.39 2.203-2.078 3.28-5 3.28-3.86 0-5.906-2.374-6.047-6.655h14.188v-.985c0-6.734-4.11-9.36-8.468-9.36-5.188 0-8.813 3.97-8.813 9.657v.281c0 5.797 3.781 9.547 9.11 9.547zM4.828-11.234c.5-3.344 2.547-5.437 5.61-5.437 3.093 0 5.109 1.547 5.405 5.437z"/><path id="d" d="M3.234 0h3.141v-12.562L17.859 0h3.781L9.61-13.25l11.452-12.484h-3.5L6.374-13.359v-12.375h-3.14Z"/><path id="e" d="M4.719 6.547h3.015L18.14-18.828h-3.062l-5.219 13.5-5.75-13.5H.906l7.375 16.89z"/></defs><path fill="none" stroke="#000" stroke-dashoffset=".5" stroke-linecap="round" stroke-linejoin="round" stroke-width="1.5" d="M1010.498 412.468V0"/><g stroke="#000" stroke-width="1.3" transform="translate(-71.801 -328.633)"><use xlink:href="#f" width="100%" height="100%" x="417.361" y="415.363"/><use xlink:href="#g" width="100%" height="100%" x="441.625" y="415.363"/><use xlink:href="#g" width="100%" height="100%" x="464.197" y="415.363"/><use xlink:href="#h" width="100%" height="100%" x="486.769" y="415.363"/><use xlink:href="#i" width="100%" height="100%" x="495.985" y="415.363"/><use xlink:href="#j" width="100%" height="100%" x="505.165" y="415.363"/><use xlink:href="#k" width="100%" height="100%" x="525.685" y="415.363"/><use xlink:href="#l" width="100%" height="100%" x="545.125" y="415.363"/><use xlink:href="#i" width="100%" height="100%" x="557.905" y="415.363"/><use xlink:href="#m" width="100%" height="100%" x="567.085" y="415.363"/><use xlink:href="#n" width="100%" height="100%" x="588.829" y="415.363"/><use xlink:href="#o" width="100%" height="100%" x="610.357" y="415.363"/><use xlink:href="#p" width="100%" height="100%" x="619.897" y="415.363"/><use xlink:href="#q" width="100%" height="100%" x="640.813" y="415.363"/><use xlink:href="#m" width="100%" height="100%" x="653.809" y="415.363"/><use xlink:href="#j" width="100%" height="100%" x="675.553" y="415.363"/><use xlink:href="#r" width="100%" height="100%" x="696.073" y="415.363"/><use xlink:href="#s" width="100%" height="100%" x="716.701" y="415.363"/><use xlink:href="#s" width="100%" height="100%" x="733.981" y="415.363"/><use xlink:href="#m" width="100%" height="100%" x="751.261" y="415.363"/><use xlink:href="#q" width="100%" height="100%" x="773.005" y="415.363"/><use xlink:href="#t" width="100%" height="100%" x="1289.173" y="415.363"/><use xlink:href="#r" width="100%" height="100%" x="1311.745" y="415.363"/><use xlink:href="#j" width="100%" height="100%" x="1332.193" y="415.363"/><use xlink:href="#u" width="100%" height="100%" x="1352.713" y="415.363"/><use xlink:href="#q" width="100%" height="100%" x="1374.097" y="415.363"/><use xlink:href="#r" width="100%" height="100%" x="1387.093" y="415.363"/><use xlink:href="#o" width="100%" height="100%" x="1407.541" y="415.363"/><use xlink:href="#v" width="100%" height="100%" x="1417.081" y="415.363"/><use xlink:href="#n" width="100%" height="100%" x="1437.457" y="415.363"/><use xlink:href="#j" width="100%" height="100%" x="1458.985" y="415.363"/><use xlink:href="#h" width="100%" height="100%" x="1479.505" y="415.363"/><use xlink:href="#k" width="100%" height="100%" x="1488.721" y="415.363"/><use xlink:href="#w" width="100%" height="100%" x="1507.621" y="415.363"/><use xlink:href="#r" width="100%" height="100%" x="1526.305" y="415.363"/><use xlink:href="#o" width="100%" height="100%" x="1546.753" y="415.363"/><use xlink:href="#p" width="100%" height="100%" x="1556.293" y="415.363"/><use xlink:href="#q" width="100%" height="100%" x="1577.209" y="415.363"/><use xlink:href="#m" width="100%" height="100%" x="1590.205" y="415.363"/><use xlink:href="#j" width="100%" height="100%" x="1611.949" y="415.363"/><use xlink:href="#r" width="100%" height="100%" x="1632.469" y="415.363"/><use xlink:href="#s" width="100%" height="100%" x="1653.097" y="415.363"/><use xlink:href="#s" width="100%" height="100%" x="1670.377" y="415.363"/><use xlink:href="#m" width="100%" height="100%" x="1687.657" y="415.363"/><use xlink:href="#q" width="100%" height="100%" x="1709.401" y="415.363"/></g><path fill="#1cb100" d="M1123.299 283.477h305.26v-111.77h-305.26z"/><g fill="#fff" stroke-width="1.5" transform="translate(-71.801 -328.633)"><use xlink:href="#x" width="100%" height="100%" x="1315.729" y="568.473"/><use xlink:href="#y" width="100%" height="100%" x="1337.649" y="568.473"/><use xlink:href="#z" width="100%" height="100%" x="1360.753" y="568.473"/></g><use xlink:href="#A" width="100%" height="100%" x="1641.475" y="571.005" stroke-width="1.5" transform="translate(-71.801 -328.633)"/><use xlink:href="#k" width="100%" height="100%" x="1672.291" y="571.005" stroke-width="1.5" transform="translate(-71.801 -328.633)"/><use xlink:href="#s" width="100%" height="100%" x="1691.731" y="571.005" stroke-width="1.5" transform="translate(-71.801 -328.633)"/><use xlink:href="#l" width="100%" height="100%" x="1709.011" y="571.005" stroke-width="1.5" transform="translate(-71.801 -328.633)"/><use xlink:href="#r" width="100%" height="100%" x="1721.791" y="571.005" stroke-width="1.5" transform="translate(-71.801 -328.633)"/><use xlink:href="#q" width="100%" height="100%" x="1742.239" y="571.005" stroke-width="1.5" transform="translate(-71.801 -328.633)"/><use xlink:href="#o" width="100%" height="100%" x="1755.775" y="571.005" stroke-width="1.5" transform="translate(-71.801 -328.633)"/><use xlink:href="#D" width="100%" height="100%" x="1765.315" y="571.005" stroke-width="1.5" transform="translate(-71.801 -328.633)"/><use xlink:href="#r" width="100%" height="100%" x="1786.411" y="571.005" stroke-width="1.5" transform="translate(-71.801 -328.633)"/><use xlink:href="#E" width="100%" height="100%" x="1806.679" y="571.005" stroke-width="1.5" transform="translate(-71.801 -328.633)"/><path fill="none" stroke="#929292" stroke-width="1.5" d="M1555.497 228.695h-104.61"/><path fill="#929292" d="m1452.399 222.097-13.203 6.598 13.203 6.601z"/><g stroke-width="1.5" transform="translate(-71.801 -328.633)"><use xlink:href="#p" width="100%" height="100%" x="808.93" y="536.006"/><use xlink:href="#k" width="100%" height="100%" x="829.666" y="536.006"/><use xlink:href="#s" width="100%" height="100%" x="849.106" y="536.006"/><use xlink:href="#s" width="100%" height="100%" x="866.386" y="536.006"/><use xlink:href="#F" width="100%" height="100%" x="883.486" y="536.006"/><use xlink:href="#m" width="100%" height="100%" x="911.71" y="536.006"/><use xlink:href="#q" width="100%" height="100%" x="933.454" y="536.006"/><use xlink:href="#G" width="100%" height="100%" x="946.45" y="536.006"/></g><path fill="none" stroke="#929292" stroke-width="1.5" d="M910.38 195.477h188.57"/><path fill="#929292" d="m1097.399 202.077 13.199-6.601-13.199-6.598z"/><g stroke-width="1.5" transform="translate(-71.801 -328.633)"><use xlink:href="#H" width="100%" height="100%" x="769.15" y="602.634"/><use xlink:href="#r" width="100%" height="100%" x="794.206" y="602.634"/><use xlink:href="#q" width="100%" height="100%" x="814.654" y="602.634"/><use xlink:href="#i" width="100%" height="100%" x="828.19" y="602.634"/><use xlink:href="#w" width="100%" height="100%" x="837.37" y="602.634"/><use xlink:href="#r" width="100%" height="100%" x="856.054" y="602.634"/><use xlink:href="#G" width="100%" height="100%" x="876.502" y="602.634"/><use xlink:href="#o" width="100%" height="100%" x="899.074" y="602.634"/><use xlink:href="#D" width="100%" height="100%" x="908.614" y="602.634"/><use xlink:href="#r" width="100%" height="100%" x="929.71" y="602.634"/><use xlink:href="#E" width="100%" height="100%" x="949.978" y="602.634"/></g><path fill="none" stroke="#929292" stroke-width="1.5" d="M1110.598 262.097h-188.57"/><path fill="#929292" d="M923.579 255.497 910.38 262.1l13.199 6.601z"/><path fill="none" stroke="#929292" stroke-width="1.5" d="M684.64 262.097H496.07"/><g stroke-width="1.5"><path fill="#929292" d="m497.569 255.497-13.199 6.602 13.199 6.601z"/><path fill="#00a2ff" d="M166.009 284.587h305.26v-111.77h-305.26Z"/><g fill="#fff" transform="translate(-71.801 -328.633)"><use xlink:href="#I" width="100%" height="100%" x="359.323" y="569.577"/><use xlink:href="#J" width="100%" height="100%" x="380.667" y="569.577"/><use xlink:href="#K" width="100%" height="100%" x="400.827" y="569.577"/></g></g><g fill="#929292" stroke-width="1.5" transform="translate(-71.801 -328.633)"><use xlink:href="#L" width="100%" height="100%" x="1224.165" y="649.897"/><use xlink:href="#M" width="100%" height="100%" x="1249.869" y="649.897"/><use xlink:href="#N" width="100%" height="100%" x="1257.009" y="649.897"/><use xlink:href="#O" width="100%" height="100%" x="1266.949" y="649.897"/><use xlink:href="#P" width="100%" height="100%" x="1283.693" y="649.897"/><use xlink:href="#Q" width="100%" height="100%" x="1291.113" y="649.897"/><use xlink:href="#R" width="100%" height="100%" x="1303.573" y="649.897"/><use xlink:href="#S" width="100%" height="100%" x="1314.745" y="649.897"/><use xlink:href="#S" width="100%" height="100%" x="1333.813" y="649.897"/><use xlink:href="#T" width="100%" height="100%" x="1352.881" y="649.897"/><use xlink:href="#U" width="100%" height="100%" x="1378.361" y="649.897"/><use xlink:href="#P" width="100%" height="100%" x="1391.801" y="649.897"/><use xlink:href="#V" width="100%" height="100%" x="1399.221" y="649.897"/><use xlink:href="#W" width="100%" height="100%" x="1418.709" y="649.897"/><use xlink:href="#X" width="100%" height="100%" x="1434.613" y="649.897"/><use xlink:href="#Y" width="100%" height="100%" x="1441.781" y="649.897"/><use xlink:href="#Z" width="100%" height="100%" x="1456.481" y="649.897"/></g><g stroke-width="1.5" transform="translate(227.546 343.595)"/><g stroke-width="1.5"><g><path d="M172.64 343.595h3.141v-11.516h9.281v-2.562h-9.281v-9.11h11.906v-2.547H172.64Z"/></g><g><use xlink:href="#b" transform="translate(188.702 343.595)"/></g><g><use xlink:href="#a" transform="translate(197.882 343.595)"/></g><g><use xlink:href="#c" transform="translate(207.098 343.595)"/></g><g><use xlink:href="#d" transform="translate(237.086 343.595)"/></g><g><use xlink:href="#c" transform="translate(258.182 343.595)"/></g><g><use xlink:href="#e" transform="translate(278.45 343.595)"/></g></g><g stroke-width="1.5" transform="translate(159.095 500.355)"/><g stroke-width="1.5" transform="translate(256.967 500.355)"/><g stroke-width="1.5" transform="translate(465.095 500.355)"/><g stroke-width="1.5" transform="translate(731.159 500.355)"/><g stroke-width="1.5" transform="translate(944.999 500.355)"/><g stroke-width="1.5" transform="translate(1020.167 500.355)"/><path fill="none" stroke="#929292" stroke-width="1.5" d="M136.5 343.867h-70v-128h81.699"/><path fill="#929292" d="m134.999 350.467 13.199-6.601-13.199-6.602z"/><path fill="none" stroke="#929292" stroke-width="1.5" d="M148.097 318.765h-56v-74.199h44.301"/><path fill="#929292" d="m134.899 251.167 13.199-6.601-13.199-6.598z"/></svg>