<svg width="100" height="35" xmlns="http://www.w3.org/2000/svg"><path fill="#4ebb56" d="M72.189 7.842c-.22.12-.158.018-2.08 3.384-.335.59-.556 1.014-.573 1.107-.129.684.725 1.154 1.208.666.083-.085 2.207-3.734 2.424-4.167.31-.618-.381-1.317-.98-.99m3.557-.018c-.188.083-.308.243-.73.981-.226.397-.956 1.67-1.623 2.829l-2.46 4.283c-2.334 4.07-3.475 6.055-3.763 6.549-.219.376-.183.56.26 1.338.354.621.49.782.719.85.238.072 16.853.059 17.025-.013a.733.733 0 0 0 .26-1.196c-.2-.216.407-.2-7.93-.2-5.394 0-7.7-.012-7.827-.04-.446-.095-.765-.582-.637-.97.041-.127.824-1.504 3.468-6.106.688-1.197 1.744-3.037 2.346-4.089 1.334-2.327 1.326-2.317 1.76-2.318.481 0 .508.035 1.826 2.336 1.766 3.083 2.99 5.217 3.532 6.16.498.864.5.868.511 1.115.015.32-.11.562-.372.715l-.168.099-3.067.002-3.067.002-.172.088c-.598.308-.502 1.21.146 1.373.272.069 8.6.054 8.803-.015.313-.107.49-.361.49-.707 0-.257.235.178-2.15-3.964l-1.94-3.38a1770.427 1770.427 0 0 0-2.468-4.302c-.71-1.24-.75-1.296-.955-1.402-.167-.085-1.628-.1-1.817-.018m4.71 0c-.296.13-.502.562-.408.857.058.18.584 1.1.704 1.23.444.48 1.226.158 1.226-.505v-.268l-.297-.514c-.467-.81-.762-1.002-1.225-.8m2.244 3.998a.743.743 0 0 0-.324.95c.125.282.902 1.601 1.014 1.723.46.495 1.296.142 1.252-.53-.012-.188-.607-1.316-1.013-1.922a.728.728 0 0 0-.929-.221m-6.293 1.068c-.21.066-.33.191-.545.567-.272.479-1.37 2.39-2.809 4.89-.857 1.49-1.298 2.29-1.323 2.402a.726.726 0 0 0 .902.851c.335-.097.13.226 2.843-4.515.647-1.13.748-1.238 1.167-1.239.413 0 .534.134 1.245 1.38.722 1.268.768 1.32 1.188 1.325.474.007.84-.435.724-.873-.022-.083-.379-.74-.793-1.46l-1.256-2.184c-.672-1.168-.831-1.304-1.343-1.144m-8.093 1.926c-.259.065-.363.177-.683.729-2.237 3.868-2.323 4.023-2.336 4.266-.039.673.764 1.04 1.22.557.06-.063.41-.64.78-1.283 2.043-3.555 1.921-3.329 1.921-3.558 0-.466-.455-.825-.902-.711M85.375 16.4c-.29.153-.407.345-.407.67v.235l.853 1.492c.47.82.887 1.53.93 1.576.367.405 1.106.192 1.223-.353.065-.303.052-.338-.536-1.358l-.762-1.33c-.551-.965-.841-1.174-1.3-.932m-15.598 9.971c-.467.247-.504.96-.064 1.252l.151.1 4.646.019.158-.083c.426-.225.503-.852.145-1.183-.205-.19-.156-.187-2.606-.187h-2.274l-.156.082m7.665.033c-.613.415-.337 1.339.4 1.335.446-.001.748-.342.71-.8a.719.719 0 0 0-1.11-.535m3.61-.062c-.56.247-.554 1.114.011 1.35.222.093 2.26.066 2.432-.032.512-.293.503-1.027-.015-1.291-.193-.099-2.213-.12-2.427-.027" style="fill-rule:evenodd;stroke-width:.212397"/><path d="M20.5 17a3.503 3.503 0 0 0-3.463 3.012c-.017-.001-.033-.01-.05-.008l-.507.017a.5.5 0 0 0 .016.999h.018l.506-.016c.008 0 .012-.005.02-.006A3.503 3.503 0 0 0 20.5 24c1.93 0 3.5-1.57 3.5-3.5S22.43 17 20.5 17Zm0 1c1.378 0 2.5 1.122 2.5 2.5S21.878 23 20.5 23a2.503 2.503 0 0 1-2.5-2.5c0-1.378 1.122-2.5 2.5-2.5ZM10.346 20.025A.5.5 0 0 0 10 20.5a.5.5 0 0 0 1 0 .5.5 0 0 0-.654-.475zm2 0A.5.5 0 0 0 12 20.5a.5.5 0 0 0 1 0 .5.5 0 0 0-.654-.475z" style="fill:#87b6f9;fill-opacity:1" transform="matrix(.83333 0 0 .83333 12 7.25)"/><path d="M5 0C2.243 0 0 2.243 0 5a5.008 5.008 0 0 0 4 4.898V17c0 2.206 1.794 4 4 4h.04a3.502 3.502 0 0 0 3.46 3c1.93 0 3.5-1.57 3.5-3.5S13.43 17 11.5 17a3.503 3.503 0 0 0-3.46 3H8c-1.654 0-3-1.346-3-3v-5.043A3.47 3.47 0 0 0 7.482 13h.557a3.502 3.502 0 0 0 3.461 3 3.503 3.503 0 0 0 3.46-3h2.08a3.503 3.503 0 0 0 3.46 3c1.93 0 3.5-1.57 3.5-3.5S22.43 9 20.5 9a3.503 3.503 0 0 0-3.46 3h-2.08a3.502 3.502 0 0 0-3.46-3 3.503 3.503 0 0 0-3.46 3h-.558A2.482 2.482 0 0 1 5.05 9.998 5.005 5.005 0 0 0 10 5c0-2.757-2.243-5-5-5Zm0 1c2.206 0 4 1.794 4 4S7.206 9 5 9 1 7.206 1 5s1.794-4 4-4ZM3.953 2.408A1 1 0 0 0 3 3.406v3.196a1.001 1.001 0 0 0 1.527.85l2.557-1.585A1 1 0 0 0 7.09 4.17L4.533 2.56a1 1 0 0 0-.58-.152ZM4 3.406l2.557 1.61L4 6.602ZM11.5 10c1.378 0 2.5 1.122 2.5 2.5S12.878 15 11.5 15A2.503 2.503 0 0 1 9 12.5c0-1.378 1.122-2.5 2.5-2.5Zm9 0c1.378 0 2.5 1.122 2.5 2.5S21.878 15 20.5 15a2.503 2.503 0 0 1-2.5-2.5c0-1.378 1.122-2.5 2.5-2.5Zm-7.926 1.307a.5.5 0 0 0-.41.142l-1.18 1.182-.392-.393a.5.5 0 1 0-.705.71l.744.741a.5.5 0 0 0 .353.147.504.504 0 0 0 .354-.147l1.535-1.533a.5.5 0 0 0-.299-.85zm8.996.006a.5.5 0 0 0-.406.136l-1.182 1.182-.39-.393a.5.5 0 0 0-.707.71l.746.741a.497.497 0 0 0 .707 0l1.533-1.533a.5.5 0 0 0-.3-.844ZM11.5 18c1.378 0 2.5 1.122 2.5 2.5S12.878 23 11.5 23A2.503 2.503 0 0 1 9 20.5c0-1.378 1.122-2.5 2.5-2.5Z" style="fill:#4286f6;fill-opacity:1" transform="matrix(.83333 0 0 .83333 12 7.25)"/><g style="fill:#bbb;fill-opacity:1" transform="matrix(.77778 0 0 .77778 19.591 7.267)"><rect width="1.8" height="9" x="36.457" y="8.656" rx=".3" ry=".3" style="fill:#bbb;fill-opacity:1;stroke:none;stroke-width:1.7348;stroke-miterlimit:4;stroke-dasharray:none"/><rect width="9" height="1.8" x="32.857" y="12.256" rx=".3" ry=".3" style="fill:#bbb;fill-opacity:1;stroke:none;stroke-width:1.7348;stroke-miterlimit:4;stroke-dasharray:none"/></g></svg>