<svg width="100" height="35" xmlns="http://www.w3.org/2000/svg"><path fill="#4ebb56" fill-rule="evenodd" d="M72.189 7.842c-.22.12-.158.018-2.08 3.384-.335.59-.556 1.014-.573 1.107-.129.684.725 1.154 1.208.666.083-.085 2.207-3.734 2.424-4.167.31-.618-.381-1.317-.98-.99m3.557-.018c-.188.083-.308.243-.73.981-.226.397-.956 1.67-1.623 2.829l-2.46 4.283a2090 2090 0 0 1-3.763 6.549c-.219.376-.183.56.26 1.338.354.621.49.782.719.85.238.072 16.853.059 17.025-.013a.733.733 0 0 0 .26-1.196c-.2-.216.407-.2-7.93-.2-5.394 0-7.7-.012-7.827-.04-.446-.095-.765-.582-.637-.97.041-.127.824-1.504 3.468-6.106.688-1.197 1.744-3.037 2.346-4.089 1.334-2.327 1.326-2.317 1.76-2.318.481 0 .508.035 1.826 2.336 1.766 3.083 2.99 5.217 3.532 6.16.498.864.5.868.511 1.115.015.32-.11.562-.372.715l-.168.099-3.067.002-3.067.002-.172.088c-.598.308-.502 1.21.146 1.373.272.069 8.6.054 8.803-.015.313-.107.49-.361.49-.707 0-.257.235.178-2.15-3.964l-1.94-3.38a1770 1770 0 0 0-2.468-4.302c-.71-1.24-.75-1.296-.955-1.402-.167-.085-1.628-.1-1.817-.018m4.71 0c-.296.13-.502.562-.408.857.058.18.584 1.1.704 1.23.444.48 1.226.158 1.226-.505v-.268l-.297-.514c-.467-.81-.762-1.002-1.225-.8m2.244 3.998a.743.743 0 0 0-.324.95c.125.282.902 1.601 1.014 1.723.46.495 1.296.142 1.252-.53-.012-.188-.607-1.316-1.013-1.922a.73.73 0 0 0-.929-.221m-6.293 1.068c-.21.066-.33.191-.545.567-.272.479-1.37 2.39-2.809 4.89q-1.285 2.234-1.323 2.402a.726.726 0 0 0 .902.851c.335-.097.13.226 2.843-4.515.647-1.13.748-1.238 1.167-1.239.413 0 .534.134 1.245 1.38.722 1.268.768 1.32 1.188 1.325.474.007.84-.435.724-.873-.022-.083-.379-.74-.793-1.46l-1.256-2.184c-.672-1.168-.831-1.304-1.343-1.144m-8.093 1.926c-.259.065-.363.177-.683.729-2.237 3.868-2.323 4.023-2.336 4.266-.039.673.764 1.04 1.22.557.06-.063.41-.64.78-1.283 2.043-3.555 1.921-3.329 1.921-3.558 0-.466-.455-.825-.902-.711M85.375 16.4c-.29.153-.407.345-.407.67v.235l.853 1.492c.47.82.887 1.53.93 1.576.367.405 1.106.192 1.223-.353.065-.303.052-.338-.536-1.358l-.762-1.33c-.551-.965-.841-1.174-1.3-.932m-15.598 9.971c-.467.247-.504.96-.064 1.252l.151.1 4.646.019.158-.083c.426-.225.503-.852.145-1.183-.205-.19-.156-.187-2.606-.187h-2.274zm7.665.033c-.613.415-.337 1.339.4 1.335.446-.001.748-.342.71-.8a.72.72 0 0 0-1.11-.535m3.61-.062c-.56.247-.554 1.114.011 1.35.222.093 2.26.066 2.432-.032.512-.293.503-1.027-.015-1.291-.193-.099-2.213-.12-2.427-.027"/><g><path fill="#87b6f9" d="M29.083 21.417a2.92 2.92 0 0 0-2.886 2.51c-.014-.001-.027-.009-.041-.007l-.423.014a.417.417 0 0 0 .014.833h.015l.421-.014q.009-.002.017-.005a2.92 2.92 0 0 0 2.883 2.502c1.609 0 2.917-1.308 2.917-2.917s-1.308-2.916-2.917-2.916m0 .833c1.149 0 2.084.935 2.084 2.083s-.935 2.084-2.084 2.084A2.086 2.086 0 0 1 27 24.333c0-1.148.935-2.083 2.083-2.083m-8.461 1.687a.42.42 0 0 0-.289.396.417.417 0 0 0 .834 0 .417.417 0 0 0-.545-.396m1.666 0a.42.42 0 0 0-.288.396.417.417 0 0 0 .833 0 .417.417 0 0 0-.545-.396"/><path fill="#4286f6" d="M16.167 7.25A4.17 4.17 0 0 0 12 11.417a4.175 4.175 0 0 0 3.333 4.081v5.919a3.337 3.337 0 0 0 3.334 3.333h.033a2.92 2.92 0 0 0 2.883 2.5c1.609 0 2.917-1.308 2.917-2.917s-1.308-2.916-2.917-2.916a2.92 2.92 0 0 0-2.883 2.5h-.033a2.503 2.503 0 0 1-2.5-2.5v-4.203a2.9 2.9 0 0 0 2.068.87h.464a2.92 2.92 0 0 0 2.884 2.5 2.92 2.92 0 0 0 2.884-2.5H26.2a2.92 2.92 0 0 0 2.883 2.5c1.609 0 2.917-1.309 2.917-2.917s-1.308-2.917-2.917-2.917a2.92 2.92 0 0 0-2.883 2.5h-1.733a2.92 2.92 0 0 0-2.884-2.5 2.92 2.92 0 0 0-2.883 2.5h-.465a2.07 2.07 0 0 1-2.027-1.668 4.17 4.17 0 0 0 4.125-4.165 4.17 4.17 0 0 0-4.166-4.167m0 .833c1.838 0 3.333 1.495 3.333 3.334s-1.495 3.333-3.333 3.333-3.334-1.495-3.334-3.333 1.495-3.334 3.334-3.334m-.873 1.174a.833.833 0 0 0-.794.831v2.664a.834.834 0 0 0 1.272.708l2.131-1.32a.833.833 0 0 0 .005-1.415l-2.13-1.342a.83.83 0 0 0-.484-.126m.04.831 2.13 1.342-2.13 1.322Zm6.25 5.495c1.148 0 2.083.935 2.083 2.084s-.935 2.083-2.084 2.083a2.086 2.086 0 0 1-2.083-2.083c0-1.149.935-2.084 2.083-2.084m7.5 0c1.149 0 2.084.935 2.084 2.084s-.935 2.083-2.084 2.083A2.086 2.086 0 0 1 27 17.667c0-1.149.935-2.084 2.083-2.084m-6.605 1.09a.42.42 0 0 0-.341.118l-.984.985-.326-.328a.417.417 0 1 0-.588.592l.62.617a.42.42 0 0 0 .294.123.42.42 0 0 0 .295-.123l1.28-1.277a.417.417 0 0 0-.25-.708m7.497.005a.42.42 0 0 0-.338.113l-.985.985-.325-.328a.417.417 0 0 0-.59.592l.622.618a.414.414 0 0 0 .59 0l1.277-1.278a.417.417 0 0 0-.25-.703m-8.393 5.574c1.149 0 2.084.935 2.084 2.083s-.935 2.084-2.084 2.084a2.086 2.086 0 0 1-2.083-2.084c0-1.148.935-2.083 2.083-2.083"/></g><g fill="#bbb" transform="translate(19.591 7.267)scale(.77778)"><rect width="1.8" height="9" x="36.457" y="8.656" rx=".3" ry=".3"/><rect width="9" height="1.8" x="32.857" y="12.256" rx=".3" ry=".3"/></g></svg>