<svg width="512" height="512" xmlns="http://www.w3.org/2000/svg"><path fill="#f45b8c" d="M0 0h512v512H0z"/><g><path fill="#f45b8c" d="M57.603 57.603h396.796v396.796H57.603z"/><path fill="#fff" d="M97.283 97.283h317.436v317.436H97.283z"/><path stroke="#000" stroke-width=".893" d="m213.841 254.017-71.423 71.423a16.74 16.74 0 0 0 23.66 23.66l71.422-71.424a33.48 33.48 0 0 0 0-47.318l-71.423-71.423a16.74 16.74 0 0 0-23.659 23.659l71.423 71.423m49.104 66.959a16.249 16.249 0 0 0 8.928 31.248h87.047a15.624 15.624 0 0 0 0-31.248h-95.975"/></g></svg>