<svg xml:space="preserve" width="100" height="35" xmlns="http://www.w3.org/2000/svg"><g><path d="M18.597 17.133 14.23 12.32a2 2 0 0 1 .595-.405q.342-.152.721-.152c.28 0 .532.05.76.165.228.1.43.253.595.443l1.697 1.861 1.684-1.861c.178-.19.38-.33.608-.443a1.8 1.8 0 0 1 .747-.165c.253 0 .507.05.722.152.228.101.418.228.595.405zm0 .734L14.23 22.68c.164.165.367.304.595.405q.342.152.721.152c.266 0 .52-.05.76-.165.228-.1.43-.253.608-.443l1.684-1.861 1.697 1.861c.165.19.367.33.595.443.228.102.481.165.76.165.253 0 .506-.05.722-.152a1.9 1.9 0 0 0 .595-.405zm13.435-.126c.215-.026.342-.102.393-.228.05-.14.063-.216.05-.228v-1.14c-.012-.215-.088-.342-.228-.392-.126-.051-.202-.064-.228-.051h-3.203v2.051h3.216zm1.747-3.343c.342.342.532.785.545 1.304v1.823c-.013.52-.19.95-.545 1.292-.341.342-.785.52-1.304.532h-3.66q-.019.779-.531 1.291a1.8 1.8 0 0 1-1.279.532v-6.635a.67.67 0 0 1 .203-.481.67.67 0 0 1 .48-.203h4.8c.519.013.95.19 1.291.545m6.61 2.887c.215-.013.355-.089.405-.228a.8.8 0 0 0 .064-.228v-.684c-.026-.215-.102-.342-.228-.392-.14-.051-.215-.064-.228-.051H37.21v1.583zm1.862.937c-.279.329-.62.532-1.051.633l1.468 2.102a2.2 2.2 0 0 1-.405.152 1.7 1.7 0 0 1-.443.05 1.81 1.81 0 0 1-1.494-.785l-1.051-1.506h-2.077v.455q-.019.78-.532 1.292-.512.513-1.291.532v-6.61a.67.67 0 0 1 .202-.481.67.67 0 0 1 .482-.203h4.786c.52.013.95.19 1.292.545.342.342.519.785.531 1.304v1.367c0 .444-.139.836-.417 1.153m6.939-2.077c-.026-.215-.102-.342-.228-.392-.14-.051-.216-.064-.228-.051H46.01c-.215.013-.354.089-.405.228a.8.8 0 0 0-.063.228v2.735c.025.215.101.354.228.405.139.05.215.063.228.063h2.722c.215-.025.355-.1.405-.228.05-.139.064-.215.064-.227zm1.291-1.747c.342.342.52.785.532 1.304v3.647q-.02.779-.532 1.291-.513.513-1.291.532h-3.647q-.78-.02-1.292-.532-.513-.513-.532-1.291v-3.647c.013-.52.19-.95.532-1.304a1.83 1.83 0 0 1 1.292-.545h3.647c.519.013.95.19 1.291.545m19.247-.545h-1.152a1.7 1.7 0 0 0-1 .304 2 2 0 0 0-.672.785l.013-.025-1.076 2.355-1.064-2.355v.025a1.8 1.8 0 0 0-.658-.785 1.74 1.74 0 0 0-1.013-.304h-1.14a.68.68 0 0 0-.494.203.73.73 0 0 0-.202.481v6.622q.779-.019 1.291-.531.514-.513.532-1.292v-3.495q0-.075.038-.114.037-.038.114-.038a.2.2 0 0 1 .076.026c.025.012.05.038.05.063l2.027 4.47a.6.6 0 0 0 .164.19c.076.05.152.076.253.076a.4.4 0 0 0 .241-.076.6.6 0 0 0 .177-.19l2.026-4.483c.013-.025.038-.038.064-.063a.2.2 0 0 1 .088-.025.14.14 0 0 1 .101.038q.038.038.038.114v3.494q.02.78.532 1.292.513.513 1.292.532v-6.61a.67.67 0 0 0-.203-.481c-.088-.127-.24-.203-.443-.203m7.205 2.292c-.025-.215-.101-.342-.228-.392-.14-.051-.215-.064-.228-.051h-2.722c-.216.013-.355.089-.405.228a.8.8 0 0 0-.064.228v2.735c.026.215.102.354.228.405.14.05.215.063.228.063h2.723c.215-.025.354-.1.405-.228.05-.139.063-.215.063-.227zm1.292-1.747c.341.342.519.785.531 1.304v3.647q-.019.779-.531 1.291-.513.513-1.292.532h-3.647q-.779-.02-1.291-.532-.513-.513-.532-1.291v-3.647c.013-.52.19-.95.532-1.304a1.83 1.83 0 0 1 1.291-.545h3.647c.52.013.95.19 1.292.545"/><path fill="#e57000" d="m18.23 17.498-3.292 3.622c-.19.202-.405.367-.658.48s-.532.178-.836.178c-.279 0-.545-.05-.798-.165A1.9 1.9 0 0 1 12 21.17l3.343-3.672L12 13.826c.19-.19.406-.329.646-.443a2.002 2.002 0 0 1 1.62.013c.254.114.482.278.672.481zm.734 0 3.293 3.622c.19.202.405.367.658.48a2.02 2.02 0 0 0 1.62.013c.254-.1.47-.253.646-.443l-3.342-3.672 3.342-3.672c-.19-.19-.405-.329-.645-.443a2.002 2.002 0 0 0-1.62.013 2.1 2.1 0 0 0-.672.481zm41.266-3.127c-.152-.165-.342-.279-.557-.367s-.443-.14-.684-.14c-.253 0-.494.05-.709.152s-.405.24-.557.405l-1.583 1.735-1.583-1.735a2 2 0 0 0-.557-.417 1.6 1.6 0 0 0-.696-.152 1.78 1.78 0 0 0-1.241.506l2.849 3.128-2.85 3.127c.166.165.343.291.558.38s.443.14.684.14c.253 0 .494-.051.709-.153s.405-.24.57-.405l1.582-1.735 1.583 1.735c.152.177.342.317.557.405.216.102.456.152.71.152.24 0 .468-.05.683-.139s.393-.215.557-.38l-2.849-3.127zm27.742 0c-.152-.165-.342-.279-.557-.367s-.443-.14-.684-.14c-.253 0-.493.05-.709.152s-.405.24-.557.405l-1.582 1.735-1.583-1.735a2 2 0 0 0-.557-.417 1.6 1.6 0 0 0-.697-.152 1.78 1.78 0 0 0-1.24.506l2.848 3.128-2.849 3.127c.165.165.342.291.557.38s.444.14.684.14c.253 0 .494-.051.71-.153s.404-.24.57-.405l1.582-1.735 1.583 1.735c.152.177.341.317.557.405.215.102.456.152.709.152.24 0 .468-.05.684-.139s.392-.215.557-.38l-2.85-3.127z"/></g></svg>