<svg xml:space="preserve" width="318.648" height="77.451" viewBox="-2 -2 100.518 24.432" xmlns="http://www.w3.org/2000/svg"><g><path fill="#da4e31" d="M80.325 2.216a8 8 0 1 0 0 16 8 8 0 0 0 0-16m0 14.973c-1.257 0-2.276-.84-2.276-1.875h4.552c0 1.035-1.02 1.875-2.276 1.875m3.76-2.496h-7.52v-1.364h7.514v1.364zm-.028-2.066h-7.47l-.075-.086c-.77-.935-.951-1.422-1.127-1.92-.003-.015.934.192 1.598.342a20 20 0 0 0 .84.17 3.12 3.12 0 0 1-.764-2.008c0-1.603 1.23-3.005.786-4.137.432.035.894.911.925 2.282.46-.635.65-1.793.65-2.504 0-.736.486-1.59.97-1.62-.432.713.112 1.324.596 2.838.182.57.158 1.527.298 2.134.046-1.261.263-3.102 1.064-3.737-.353.8.052 1.802.329 2.283.447.776.718 1.364.718 2.477 0 .747-.275 1.449-.74 1.998.528-.1.893-.189.893-.189l1.716-.335s-.25 1.024-1.208 2.012z"/><path fill="#e6522c" stroke="#e6522c" stroke-width=".238" d="M36.757 11.84a7 7 0 0 1 1.13-.087c.581 0 1.007.135 1.277.378.244.217.4.548.4.954 0 .412-.122.737-.352.973-.318.332-.818.5-1.393.5-.176 0-.338-.007-.474-.036v1.825h-.584zm.585 2.198q.192.049.487.047c.71 0 1.142-.351 1.142-.967 0-.609-.432-.9-1.075-.9-.257 0-.452.021-.555.048zm2.88.054-.026-1.021h.52l.027.649h.02c.15-.44.515-.717.913-.717.061 0 .108.007.163.014v.56c-.061-.013-.122-.013-.203-.013-.42 0-.717.311-.798.757a2 2 0 0 0-.02.278v1.745h-.596zm5.109.584c0 1.21-.845 1.737-1.63 1.737-.878 0-1.568-.649-1.568-1.683 0-1.089.724-1.731 1.623-1.731.94 0 1.575.683 1.575 1.677zm-2.59.034c0 .717.402 1.257.988 1.257.568 0 .994-.534.994-1.27 0-.556-.278-1.252-.98-1.252-.697 0-1.001.65-1.001 1.265zm3.341-.758-.027-.886h.52l.028.534h.02c.183-.31.487-.602 1.035-.602.44 0 .777.27.92.656h.013a1.3 1.3 0 0 1 .372-.426 1.1 1.1 0 0 1 .717-.23c.44 0 1.082.284 1.082 1.424v1.92h-.582v-1.846c0-.635-.237-1.007-.71-1.007-.345 0-.602.25-.71.534a1 1 0 0 0-.047.297v2.022h-.582v-1.96c0-.52-.23-.893-.683-.893-.365 0-.642.298-.737.595a.8.8 0 0 0-.048.291v1.971h-.581v-2.387zm5.971.86c.014.804.52 1.136 1.122 1.136.426 0 .694-.075.906-.17l.109.427c-.21.094-.575.21-1.096.21-1.007 0-1.609-.67-1.609-1.657S52.067 13 53.02 13c1.075 0 1.353.933 1.353 1.535a1.5 1.5 0 0 1-.02.277zm1.745-.426c.007-.373-.156-.96-.825-.96-.609 0-.865.547-.913.96zm2.028-2.103v.785h.852v.453h-.852v1.764c0 .402.115.636.446.636.162 0 .257-.014.345-.037l.027.453a1.8 1.8 0 0 1-.528.08c-.277 0-.5-.094-.642-.25-.162-.182-.23-.473-.23-.858V13.52h-.506v-.452h.51v-.605zm1.522-.747h.595v2.049h.013a1.1 1.1 0 0 1 .426-.426 1.2 1.2 0 0 1 .609-.163c.44 0 1.142.27 1.142 1.393v1.947h-.595V14.46c0-.528-.196-.968-.757-.968-.386 0-.683.27-.798.584a.8.8 0 0 0-.037.284v1.972h-.595v-4.793zm4.084 3.272c.013.804.52 1.136 1.122 1.136.426 0 .694-.075.906-.17l.108.427c-.21.095-.574.21-1.095.21-1.007 0-1.606-.67-1.606-1.657s.581-1.758 1.535-1.758c1.075 0 1.352.933 1.352 1.535a1.5 1.5 0 0 1-.02.277zm1.744-.426c.007-.372-.155-.96-.824-.96-.609 0-.866.547-.913.96zm4.05 1.062.027.9h-.528l-.034-.534h-.017c-.149.263-.5.608-1.082.608-.514 0-1.129-.29-1.129-1.433v-1.914h.595v1.805c0 .622.196 1.048.73 1.048.399 0 .676-.278.785-.548a.8.8 0 0 0 .054-.304V13.07h.595zm.906.297c.183.108.494.23.791.23.426 0 .629-.21.629-.487 0-.284-.169-.432-.602-.595-.595-.216-.876-.534-.876-.926 0-.528.432-.96 1.129-.96.331 0 .622.088.798.203l-.146.432a1.27 1.27 0 0 0-.67-.196c-.351 0-.54.203-.54.447 0 .27.188.392.614.56.561.21.859.494.859.981 0 .582-.453.987-1.217.987-.359 0-.694-.095-.92-.23z"/><path fill="#6d41ff" d="M25.763 4.047h3.794v.761h-1.478v4.168h-.838V4.808h-1.478zm5.339 1.479h2.168v3.45h-.803v-2.69h-1.365v2.69h-.803V4.047h.803Zm3.319.704v-.704h2.527v3.45h-1.577c-.768 0-1.253-.436-1.253-1.098s.52-1.1 1.253-1.1h.789V6.23zm1.739 2.056v-.817h-.803c-.31 0-.514.127-.514.409s.204.408.514.408zm1.776-2.76h2.97v3.45h-.802v-2.69h-1.366v2.69h-.801zm5.565-.084a1.806 1.806 0 1 1-1.782 1.809 1.77 1.77 0 0 1 1.782-1.81m0 2.886c.556 0 .957-.45.957-1.077s-.401-1.077-.957-1.077c-.564 0-.965.45-.965 1.077s.401 1.077.965 1.077m3.48-.767c-.648-.162-1.05-.493-1.05-1.091 0-.641.536-1.028 1.261-1.028a1.7 1.7 0 0 1 1.288.577l-.5.55a1 1 0 0 0-.809-.438c-.296 0-.472.149-.472.324 0 .17.149.282.338.324l.542.127c.592.14 1.028.472 1.028 1.077 0 .599-.464 1.07-1.372 1.07a1.74 1.74 0 0 1-1.437-.668l.507-.521a1.2 1.2 0 0 0 .993.5c.415 0 .535-.184.535-.353 0-.147-.092-.26-.394-.337zM8.195 2.716v15h10.622a4.376 4.376 0 0 0 4.377-4.376V2.716zm11.692 9.456h.56v.56h-.56zm-.176-2.41h.91v.91h-.91zm-.14-2.376h1.19v1.19h-1.19zm-1.92 7.021h.558v.56h-.56zm-.176-2.439h.91v.911h-.91zm-.14-2.346h1.191v1.19h-1.189zm.14-1.186v-.91h.91v.91zm-4.296 5.971h.56v.56h-.56zm-.175-2.41h.91v.909h-.91zm.175-1.5v-.56h.56v.56zm-.175-2.97h.91v.909h-.91zm-2.06 6.88h.56v.56h-.56zm0-2.235h.56v.56h-.56zm-.175-2.41h.91v.91h-.91zm-.14-2.376h1.19v1.19h-1.19zm-.524-2.758h11.178v2.235h-4.47v8.942h-2.236V6.863h-4.472z"/></g></svg>