<svg width="776.582" height="776.582" viewBox="0 0 205.471 205.471" xmlns="http://www.w3.org/2000/svg"><g><path d="M96.702 177.217c-.593-.045-2.622-.234-4.508-.418-26.907-2.63-51.29-16.23-65.124-36.32-10.06-14.609-13.922-31.339-11.148-48.304 3.608-22.072 19.35-42.131 41.99-53.503 17.701-8.891 37.721-12.213 58.101-9.64 25.306 3.194 48.2 16.183 61.685 34.999 11.153 15.56 15.12 33.841 11.325 52.19-1.724 8.336-5.355 16.639-10.608 24.257-5.69 8.255-13.029 15.36-21.837 21.143-4 2.627-5.927 3.726-10.357 5.907-9.943 4.897-20.884 7.997-32.797 9.295-2.966.323-14.21.588-16.722.394m13.499-16.446c6.38-.601 11.445-1.622 17.136-3.454 16.174-5.204 29.487-15.187 37.381-28.03 3.696-6.014 6.134-12.534 7.322-19.586.56-3.33.563-11.819.004-15.175-.94-5.643-2.359-10.044-4.892-15.175-5.835-11.82-15.848-21.59-28.376-27.685-15.87-7.723-34.829-10.015-52.97-6.406-9.675 1.925-19.51 5.819-26.756 10.594-4.673 3.078-10.784 8.582-14.106 12.703-6.012 7.458-10.002 16.005-11.575 24.793-.601 3.362-.825 10.588-.438 14.172 1.071 9.932 5.294 19.777 12.028 28.041 2.012 2.47 7.107 7.465 9.775 9.586 4.085 3.245 10.141 6.911 14.996 9.077 8.54 3.809 16.69 5.827 27.187 6.733 2.532.218 10.108.11 13.284-.188M98.86 124.403c-.729-.176-1.849-1.137-2.488-2.135-1.055-1.648-1.096-2.453-1.025-20.047.075-18.325-.008-17.42 1.762-19.241 1.18-1.213 1.922-1.383 6.066-1.383 4.148 0 4.886.169 6.07 1.388 1.77 1.82 1.698.95 1.698 20.304v17.1l-.512 1.12c-.531 1.164-1.814 2.49-2.75 2.843-.542.204-8.006.247-8.821.05"/></g></svg>